<?xml version="1.0" encoding="UTF-8" standalone="no"?><svg xmlns="http://www.w3.org/2000/svg" xmlns:xlink="http://www.w3.org/1999/xlink" contentStyleType="text/css" height="150px" preserveAspectRatio="none" style="width:284px;height:150px;background:#FFFFFF;" version="1.1" viewBox="0 0 284 150" width="284px" zoomAndPan="magnify"><defs/><g><!--MD5=[be996cdb8e6bf2fc7cb89c555f2cd144]
class Entity--><g id="elem_Entity"><rect codeLine="2" fill="#F1F1F1" height="129.1875" id="Entity" rx="2.5" ry="2.5" style="stroke:#181818;stroke-width:0.5;" width="263" x="7" y="7"/><ellipse cx="115.25" cy="23" fill="#ADD1B2" rx="11" ry="11" style="stroke:#181818;stroke-width:1.0;"/><path d="M118.2188,28.6406 Q117.6406,28.9375 117,29.0781 Q116.3594,29.2344 115.6563,29.2344 Q113.1563,29.2344 111.8281,27.5938 Q110.5156,25.9375 110.5156,22.8125 Q110.5156,19.6875 111.8281,18.0313 Q113.1563,16.375 115.6563,16.375 Q116.3594,16.375 117,16.5313 Q117.6563,16.6875 118.2188,16.9844 L118.2188,19.7031 Q117.5938,19.125 117,18.8594 Q116.4063,18.5781 115.7813,18.5781 Q114.4375,18.5781 113.75,19.6563 Q113.0625,20.7188 113.0625,22.8125 Q113.0625,24.9063 113.75,25.9844 Q114.4375,27.0469 115.7813,27.0469 Q116.4063,27.0469 117,26.7813 Q117.5938,26.5 118.2188,25.9219 L118.2188,28.6406 Z " fill="#000000"/><text fill="#000000" font-family="sans-serif" font-size="14" lengthAdjust="spacing" textLength="38" x="135.75" y="27.8467">Entity</text><line style="stroke:#181818;stroke-width:0.5;" x1="8" x2="269" y1="39" y2="39"/><text fill="#000000" font-family="sans-serif" font-size="14" lengthAdjust="spacing" textLength="229" x="13" y="55.9951">ID uuid.UUID `gorm:"primarykey"`</text><line style="stroke:#181818;stroke-width:1.0;" x1="8" x2="269" y1="63.2969" y2="63.2969"/><text fill="#000000" font-family="sans-serif" font-size="14" lengthAdjust="spacing" textLength="247" x="13" y="80.292">CreatedAt time.Time `gorm:"index"`</text><line style="stroke:#181818;stroke-width:1.0;" x1="8" x2="269" y1="87.5938" y2="87.5938"/><text fill="#000000" font-family="sans-serif" font-size="14" lengthAdjust="spacing" textLength="251" x="13" y="104.5889">UpdatedAt time.Time `gorm:"index"`</text><line style="stroke:#181818;stroke-width:1.0;" x1="8" x2="269" y1="111.8906" y2="111.8906"/><text fill="#000000" font-family="sans-serif" font-size="14" lengthAdjust="spacing" textLength="247" x="13" y="128.8857">DeletedAt time.Time `gorm:"index"`</text></g><!--MD5=[27312a7797dfc79e44ea1f5f148455f4]
@startuml Entity

class Entity {
    ID uuid.UUID `gorm:"primarykey"`
    - -
    CreatedAt time.Time `gorm:"index"`
    - -
    UpdatedAt time.Time `gorm:"index"`
    - -
    DeletedAt time.Time `gorm:"index"`
}

@enduml

PlantUML version 1.2022.4(Sat Apr 09 13:29:17 UTC 2022)
(GPL source distribution)
Java Runtime: OpenJDK Runtime Environment
JVM: OpenJDK 64-Bit Server VM
Default Encoding: UTF-8
Language: en
Country: null
--></g></svg>