<?xml version="1.0" encoding="UTF-8" standalone="no"?><svg xmlns="http://www.w3.org/2000/svg" xmlns:xlink="http://www.w3.org/1999/xlink" contentStyleType="text/css" height="150px" preserveAspectRatio="none" style="width:289px;height:150px;background:#FFFFFF;" version="1.1" viewBox="0 0 289 150" width="289px" zoomAndPan="magnify"><defs/><g><!--MD5=[be996cdb8e6bf2fc7cb89c555f2cd144]
class Entity--><g id="elem_Entity"><rect codeLine="2" fill="#F1F1F1" height="129.1875" id="Entity" rx="2.5" ry="2.5" style="stroke:#181818;stroke-width:0.5;" width="268" x="7" y="7"/><ellipse cx="117.75" cy="23" fill="#ADD1B2" rx="11" ry="11" style="stroke:#181818;stroke-width:1.0;"/><path d="M120.7188,28.6406 Q120.1406,28.9375 119.5,29.0781 Q118.8594,29.2344 118.1563,29.2344 Q115.6563,29.2344 114.3281,27.5938 Q113.0156,25.9375 113.0156,22.8125 Q113.0156,19.6875 114.3281,18.0313 Q115.6563,16.375 118.1563,16.375 Q118.8594,16.375 119.5,16.5313 Q120.1563,16.6875 120.7188,16.9844 L120.7188,19.7031 Q120.0938,19.125 119.5,18.8594 Q118.9063,18.5781 118.2813,18.5781 Q116.9375,18.5781 116.25,19.6563 Q115.5625,20.7188 115.5625,22.8125 Q115.5625,24.9063 116.25,25.9844 Q116.9375,27.0469 118.2813,27.0469 Q118.9063,27.0469 119.5,26.7813 Q120.0938,26.5 120.7188,25.9219 L120.7188,28.6406 Z " fill="#000000"/><text fill="#000000" font-family="sans-serif" font-size="14" lengthAdjust="spacing" textLength="38" x="138.25" y="27.8467">Entity</text><line style="stroke:#181818;stroke-width:0.5;" x1="8" x2="274" y1="39" y2="39"/><text fill="#000000" font-family="sans-serif" font-size="14" lengthAdjust="spacing" textLength="229" x="13" y="55.9951">ID uuid.UUID `gorm:"primarykey"`</text><line style="stroke:#181818;stroke-width:1.0;" x1="8" x2="274" y1="63.2969" y2="63.2969"/><text fill="#000000" font-family="sans-serif" font-size="14" lengthAdjust="spacing" textLength="256" x="13" y="80.292">CreatedAte time.Time `gorm:"index"`</text><line style="stroke:#181818;stroke-width:1.0;" x1="8" x2="274" y1="87.5938" y2="87.5938"/><text fill="#000000" font-family="sans-serif" font-size="14" lengthAdjust="spacing" textLength="251" x="13" y="104.5889">UpdatedAt time.Time `gorm:"index"`</text><line style="stroke:#181818;stroke-width:1.0;" x1="8" x2="274" y1="111.8906" y2="111.8906"/><text fill="#000000" font-family="sans-serif" font-size="14" lengthAdjust="spacing" textLength="247" x="13" y="128.8857">DeletedAt time.Time `gorm:"index"`</text></g><!--MD5=[c03bf92f21ec3b760417aafbb27eaf1a]
@startuml Entity

class Entity {
    ID uuid.UUID `gorm:"primarykey"`
    - -
    CreatedAte time.Time `gorm:"index"`
    - -
    UpdatedAt time.Time `gorm:"index"`
    - -
    DeletedAt time.Time `gorm:"index"`
}

@enduml

PlantUML version 1.2022.4(Sat Apr 09 13:29:17 UTC 2022)
(GPL source distribution)
Java Runtime: OpenJDK Runtime Environment
JVM: OpenJDK 64-Bit Server VM
Default Encoding: UTF-8
Language: en
Country: null
--></g></svg>